# xmcd
#
# Track frame offsets: 
#        300
#        12881
#        23698
#        37857
#        48365
#        61811
#        74086
#        85842
#        98031
#        114578
#        128032
#        139939
#        153147
#        166365
#        179208
#        191400
#        203321
#        220196
#        232117
#
# Disc length: 3379 seconds
#
# Revision: 0
# Processed by: cddbd v1.5.2PL0 Copyright (c) Steve Scherf et al.
# Submitted via: ExactAudioCopy v0.95b4
#
DISCID=000d2f13
DTITLE=Svirplys - I svecius pas svirpliukus
DYEAR=2001
DGENRE=Country
TTITLE0=Mano skraidymai
TTITLE1=Malunelis
TTITLE2=Mazos stoteles
TTITLE3=Vezys
TTITLE4=Eglutes ratelis
TTITLE5=Ketvirta pusnis
TTITLE6=Be saulutes
TTITLE7=Ezys
TTITLE8=Meiles sala
TTITLE9=Piratas
TTITLE10=Jonas ir pypkele
TTITLE11=Obuoliukai
TTITLE12=Mama mon naleid
TTITLE13=Mano laivelis
TTITLE14=Siena veza
TTITLE15=Uodas
TTITLE16=Vyturelis
TTITLE17=Senas siurblys
TTITLE18=Vejas
EXTD=
EXTT0=
EXTT1=
EXTT2=
EXTT3=
EXTT4=
EXTT5=
EXTT6=
EXTT7=
EXTT8=
EXTT9=
EXTT10=
EXTT11=
EXTT12=
EXTT13=
EXTT14=
EXTT15=
EXTT16=
EXTT17=
EXTT18=
PLAYORDER=
